<svg width="64" height="64" viewBox="0 0 64 64" fill="none" xmlns="http://www.w3.org/2000/svg">
  <!-- Background Container (Rounded Black Box) -->
  <rect x="2" y="2" width="60" height="60" rx="16" fill="#09090b" stroke="#333" stroke-width="1" />
  
  <!-- Centered Bug Icon (Scaled to fit 64x64) -->
  <g transform="translate(10, 10) scale(1.8)" stroke="white" stroke-width="1.5" fill="none">
    <!-- Head -->
    <path d="M8 3v2" />
    <path d="M16 3v2" />
    <path d="M9 5l-2-2" />
    <path d="M15 5l2-2" />
    
    <!-- Body -->
    <path d="M12 5l3 2v4l-3 2-3-2V7z" />
    <path d="M12 13l3.5 1.5v4l-3.5 2.5-3.5-2.5v-4z" />
    
    <!-- Legs -->
    <path d="M9 8H6l-2 3" />
    <path d="M15 8h3l2 3" />
    <path d="M9 11H5l-1 4" />
    <path d="M15 11h4l1 4" />
    <path d="M8.5 14L5 18l-1 2" />
    <path d="M15.5 14L19 18l1 2" />
    
    <!-- Details -->
    <rect x="11" y="8" width="2" height="2" rx="0.5" fill="white" opacity="0.5" />
    <line x1="12" y1="13" x2="12" y2="15" />
  </g>
</svg>
